<svg width="54" height="22" viewBox="0 0 54 22" fill="none" xmlns="http://www.w3.org/2000/svg">
<path d="M5.07096 0V0.125715C5.00836 0.377144 4.95619 0.639049 4.91445 0.91143C4.89358 1.16286 4.87271 1.47714 4.85184 1.85429C4.85184 2.23143 4.85184 2.71333 4.85184 3.3V21.1829L4.35101 20.68H9.70369C10.1837 20.68 10.5906 20.68 10.9245 20.68C11.2792 20.659 11.5714 20.6381 11.8009 20.6171C12.0514 20.5752 12.3018 20.5229 12.5522 20.46H12.6774V22H0V21.8743C0.0417363 21.6229 0.0730385 21.3714 0.0939066 21.12C0.114775 20.8476 0.125209 20.5229 0.125209 20.1457C0.146077 19.7686 0.156511 19.2867 0.156511 18.7V3.3C0.156511 2.71333 0.146077 2.23143 0.125209 1.85429C0.125209 1.47714 0.114775 1.16286 0.0939066 0.91143C0.0730385 0.639049 0.0417363 0.377144 0 0.125715V0H5.07096Z" fill="white"/>
<path d="M27.8025 0V1.63429H27.6773C27.406 1.52952 27.1556 1.45619 26.926 1.41429C26.6965 1.37238 26.4043 1.35143 26.0496 1.35143C25.6948 1.33048 25.2879 1.32 24.8288 1.32H18.4431L18.944 0.817143V7.19714L18.4431 6.69429H25.3609V8.01429H18.4431L18.944 7.51143V21.1829L18.4431 20.68H25.987C26.4669 20.68 26.8739 20.68 27.2077 20.68C27.5625 20.659 27.8547 20.6381 28.0842 20.6171C28.3346 20.5752 28.585 20.5229 28.8355 20.46H28.9607V22H14.0921V21.8743C14.1338 21.6229 14.1652 21.3714 14.186 21.12C14.2069 20.8476 14.2173 20.5229 14.2173 20.1457C14.2382 19.7686 14.2486 19.2867 14.2486 18.7V3.3C14.2486 2.71333 14.2382 2.23143 14.2173 1.85429C14.2173 1.47714 14.2069 1.16286 14.186 0.91143C14.1652 0.639049 14.1338 0.377144 14.0921 0.125715V0H27.8025Z" fill="white"/>
<path d="M33.0275 0L43.1381 16.28H41.6669L52.1219 0H54C53.9583 0.251429 53.927 0.502858 53.9061 0.754285C53.8852 0.984762 53.8644 1.2781 53.8435 1.63429C53.8435 1.96952 53.8435 2.3781 53.8435 2.86V18.7C53.8435 19.2867 53.8435 19.7686 53.8435 20.1457C53.8644 20.5229 53.8852 20.8476 53.9061 21.12C53.927 21.3714 53.9583 21.6229 54 21.8743V22H48.929V21.8743C48.9916 21.6229 49.0334 21.3714 49.0542 21.12C49.096 20.8476 49.1169 20.5229 49.1169 20.1457C49.1377 19.7686 49.1482 19.2867 49.1482 18.7V6.63143H49.4299L40.3835 20.68H40.3522L31.5876 6.63143H32.6206V18.7C32.6206 19.2867 32.6206 19.7686 32.6206 20.1457C32.6414 20.5229 32.6623 20.8476 32.6832 21.12C32.7249 21.3714 32.7771 21.6229 32.8397 21.8743V22H31.1494V21.8743C31.1911 21.6229 31.2224 21.3714 31.2433 21.12C31.2642 20.8476 31.2746 20.5229 31.2746 20.1457C31.2955 19.7686 31.3059 19.2867 31.3059 18.7V2.76571C31.3059 2.30476 31.2955 1.91714 31.2746 1.60286C31.2746 1.26762 31.2642 0.984762 31.2433 0.754285C31.2224 0.502858 31.1911 0.251429 31.1494 0H33.0275Z" fill="white"/>
</svg>
